<?xml version="1.0" encoding="iso-8859-1"?>
<!-- Generator: Adobe Illustrator 18.0.0, SVG Export Plug-In . SVG Version: 6.00 Build 0)  -->
<!DOCTYPE svg PUBLIC "-//W3C//DTD SVG 1.1//EN" "http://www.w3.org/Graphics/SVG/1.1/DTD/svg11.dtd">
<svg version="1.1" id="Capa_1" xmlns="http://www.w3.org/2000/svg" xmlns:xlink="http://www.w3.org/1999/xlink" x="0px" y="0px"
	 viewBox="0 0 254.358 254.358" style="enable-background:new 0 0 254.358 254.358;" xml:space="preserve">
<g>
	<path d="M241.312,121.309c1.588-2.975,2.58-6.217,2.879-9.571c0.674-7.585-2.234-15.229-7.977-20.973l-38.541-38.538
		c-4.676-4.678-10.449-7.412-16.461-7.932c-0.871-1.704-1.932-3.309-3.176-4.779c-4.936-5.827-12.414-9.169-20.52-9.169H99.86
		c-8.104,0-15.582,3.342-20.516,9.169c-1.225,1.444-2.27,3.019-3.133,4.69c-7.037-0.293-14.004,2.494-19.527,8.019L18.144,90.766
		c-5.744,5.744-8.65,13.389-7.977,20.975c0.299,3.354,1.289,6.595,2.877,9.568c-0.767,1.763-1.517,3.541-2.23,5.335
		C2.775,146.93-0.987,167.633,0.222,184.939c1.344,19.246,8.727,32.479,20.793,37.262c3.08,1.221,6.309,1.811,9.635,1.811
		c18.842,0,40.785-18.94,56.475-49.487c3.449,1.051,7.111,1.597,10.85,1.597c1.123,0,2.25-0.053,3.381-0.151
		c6.072,5.117,13.787,8.285,21.707,8.285h11.254c7.854,0,15.5-3.115,21.547-8.154c0.178,0.003,0.355,0.014,0.533,0.014
		c3.752,0,7.406-0.542,10.838-1.587c15.691,30.545,37.633,49.484,56.473,49.484c3.326,0,6.557-0.59,9.637-1.811
		c12.066-4.782,19.449-18.015,20.793-37.262c1.209-17.306-2.555-38.009-10.594-58.294
		C242.833,124.856,242.083,123.076,241.312,121.309z M225.607,101.372c2.633,2.632,3.926,5.843,3.643,9.039
		c-0.283,3.196-2.123,6.128-5.178,8.256l-56.119,39.081c-0.166,0.116-0.352,0.215-0.523,0.324c0.186-0.747,0.35-1.5,0.479-2.263
		L183.7,61.263c0.047-0.283,0.08-0.565,0.119-0.849c1.135,0.596,2.229,1.399,3.246,2.418L225.607,101.372z M28.751,101.372
		l38.541-38.54c1.863-1.865,3.979-3.01,6.145-3.432c0.064,0.62,0.139,1.24,0.244,1.862l15.791,94.548
		c0.225,1.352,0.549,2.679,0.953,3.98c-1.092-0.4-2.133-0.879-3.094-1.449c-0.002,0-0.002-0.002-0.004-0.002
		c-0.316-0.188-0.623-0.384-0.92-0.591l-56.121-39.082c-3.055-2.128-4.894-5.059-5.178-8.255
		C24.825,107.215,26.118,104.005,28.751,101.372z M26.54,208.255c-12.971-5.141-16.936-37.283-2.06-75.354l49.461,34.445
		C58.622,197.262,37.599,212.647,26.54,208.255z M123.062,169.254c-5.137,0-10.213-2.524-13.83-6.348
		c-0.033-0.035-0.066-0.07-0.1-0.105c-2.49-2.668-4.279-5.949-4.865-9.462L88.476,58.792c-0.617-3.688,0.207-7.092,2.316-9.583
		c2.109-2.49,5.33-3.862,9.068-3.862h57.656c3.74,0,6.963,1.372,9.072,3.863c2.109,2.49,2.932,5.893,2.316,9.582l-15.793,94.547
		c-0.604,3.615-2.477,6.985-5.08,9.692c-0.145,0.15-0.283,0.303-0.432,0.448c-3.572,3.503-8.404,5.774-13.285,5.774H123.062z
		 M227.818,208.255c-11.066,4.384-32.084-10.992-47.402-40.907l49.463-34.445C244.753,170.974,240.786,203.115,227.818,208.255z"/>
</g>
<g>
</g>
<g>
</g>
<g>
</g>
<g>
</g>
<g>
</g>
<g>
</g>
<g>
</g>
<g>
</g>
<g>
</g>
<g>
</g>
<g>
</g>
<g>
</g>
<g>
</g>
<g>
</g>
<g>
</g>
</svg>
